<svg xmlns="http://www.w3.org/2000/svg" xmlns:xlink="http://www.w3.org/1999/xlink" zoomAndPan="magnify" preserveAspectRatio="xMidYMid meet" version="1.2" viewBox="124.45 129.52 274.89 87.27"><defs><clipPath id="f0ab2093dc"><path d="M 124.21875 129.519531 L 232.96875 129.519531 L 232.96875 216.519531 L 124.21875 216.519531 Z M 124.21875 129.519531 "/></clipPath></defs><g id="3c755af971"><g clip-rule="nonzero" clip-path="url(#f0ab2093dc)"><path style=" stroke:none;fill-rule:nonzero;fill:#ffbd59;fill-opacity:1;" d="M 396.878906 211.617188 C 398.234375 211.617188 399.335938 212.710938 399.335938 214.066406 C 399.335938 215.417969 398.234375 216.515625 396.878906 216.515625 L 144.59375 216.515625 C 142.164062 216.515625 139.957031 215.523438 138.359375 213.929688 C 136.761719 212.335938 135.765625 210.136719 135.765625 207.714844 L 135.765625 176.777344 L 131.390625 176.777344 C 129.679688 176.777344 128.273438 176.328125 127.171875 175.589844 C 125.957031 174.769531 125.152344 173.609375 124.746094 172.292969 L 124.742188 172.292969 C 124.367188 171.070312 124.355469 169.722656 124.691406 168.417969 C 125.09375 166.855469 125.996094 165.335938 127.367188 164.160156 L 164.980469 131.835938 C 166.785156 130.289062 169.117188 129.519531 171.425781 129.519531 C 173.734375 129.519531 176.070312 130.289062 177.871094 131.835938 L 203.148438 153.632812 C 204.171875 154.511719 204.285156 156.054688 203.398438 157.074219 C 202.515625 158.09375 200.96875 158.207031 199.945312 157.324219 L 174.664062 135.53125 C 173.800781 134.789062 172.625 134.417969 171.425781 134.417969 C 170.230469 134.417969 169.050781 134.789062 168.1875 135.53125 L 130.574219 167.851562 C 129.980469 168.363281 129.597656 168.992188 129.433594 169.621094 C 129.320312 170.0625 129.316406 170.496094 129.425781 170.855469 L 129.425781 170.867188 C 129.507812 171.128906 129.671875 171.363281 129.917969 171.53125 C 130.238281 171.746094 130.722656 171.875 131.390625 171.875 L 138.222656 171.875 C 139.578125 171.875 140.679688 172.972656 140.679688 174.328125 L 140.679688 207.714844 C 140.679688 208.785156 141.121094 209.761719 141.832031 210.46875 C 142.542969 211.175781 143.519531 211.617188 144.59375 211.617188 Z M 396.878906 211.617188 "/></g><g style="fill:#ffffff;fill-opacity:1;"><g transform="translate(140.711347, 206.383462)"><path style="stroke:none" d="M 23.515625 -17.953125 C 25.441406 -15.847656 26.40625 -13.273438 26.40625 -10.234375 C 26.40625 -7.203125 25.441406 -4.640625 23.515625 -2.546875 C 21.597656 -0.453125 19.160156 0.59375 16.203125 0.59375 C 13.484375 0.59375 11.242188 -0.375 9.484375 -2.3125 L 9.40625 -2.3125 L 9.40625 0 L 2.40625 0 L 2.40625 -34.40625 L 9.484375 -34.40625 L 9.484375 -18.5625 C 11.242188 -20.269531 13.484375 -21.125 16.203125 -21.125 C 19.160156 -21.125 21.597656 -20.066406 23.515625 -17.953125 Z M 17.546875 -6.78125 C 18.429688 -7.675781 18.875 -8.828125 18.875 -10.234375 C 18.875 -11.648438 18.414062 -12.8125 17.5 -13.71875 C 16.582031 -14.625 15.441406 -15.078125 14.078125 -15.078125 C 12.742188 -15.078125 11.613281 -14.625 10.6875 -13.71875 C 9.769531 -12.8125 9.3125 -11.648438 9.3125 -10.234375 C 9.3125 -8.847656 9.757812 -7.703125 10.65625 -6.796875 C 11.550781 -5.890625 12.691406 -5.4375 14.078125 -5.4375 C 15.515625 -5.4375 16.671875 -5.882812 17.546875 -6.78125 Z M 17.546875 -6.78125 "/></g></g><g style="fill:#ffffff;fill-opacity:1;"><g transform="translate(166.148643, 206.383462)"><path style="stroke:none" d="M 2.40625 0 L 2.40625 -20.515625 L 9.484375 -20.515625 L 9.484375 -17.5625 L 9.5625 -17.5625 C 9.613281 -17.664062 9.695312 -17.796875 9.8125 -17.953125 C 9.9375 -18.117188 10.195312 -18.398438 10.59375 -18.796875 C 11 -19.203125 11.425781 -19.5625 11.875 -19.875 C 12.332031 -20.195312 12.921875 -20.484375 13.640625 -20.734375 C 14.359375 -20.992188 15.09375 -21.125 15.84375 -21.125 C 16.613281 -21.125 17.367188 -21.015625 18.109375 -20.796875 C 18.859375 -20.585938 19.410156 -20.375 19.765625 -20.15625 L 20.3125 -19.84375 L 17.359375 -13.84375 C 16.484375 -14.582031 15.257812 -14.953125 13.6875 -14.953125 C 12.832031 -14.953125 12.097656 -14.765625 11.484375 -14.390625 C 10.867188 -14.023438 10.429688 -13.570312 10.171875 -13.03125 C 9.921875 -12.5 9.742188 -12.046875 9.640625 -11.671875 C 9.535156 -11.304688 9.484375 -11.015625 9.484375 -10.796875 L 9.484375 0 Z M 2.40625 0 "/></g></g><g style="fill:#ffffff;fill-opacity:1;"><g transform="translate(184.186671, 206.383462)"><path style="stroke:none" d="M 3.078125 -31.953125 C 3.898438 -32.785156 4.882812 -33.203125 6.03125 -33.203125 C 7.1875 -33.203125 8.175781 -32.785156 9 -31.953125 C 9.820312 -31.128906 10.234375 -30.144531 10.234375 -29 C 10.234375 -27.851562 9.820312 -26.863281 9 -26.03125 C 8.175781 -25.207031 7.1875 -24.796875 6.03125 -24.796875 C 4.882812 -24.796875 3.898438 -25.207031 3.078125 -26.03125 C 2.253906 -26.863281 1.84375 -27.851562 1.84375 -29 C 1.84375 -30.144531 2.253906 -31.128906 3.078125 -31.953125 Z M 2.40625 -20.515625 L 2.40625 0 L 9.484375 0 L 9.484375 -20.515625 Z M 2.40625 -20.515625 "/></g></g><g style="fill:#ffffff;fill-opacity:1;"><g transform="translate(194.385485, 206.383462)"><path style="stroke:none" d="M 26.15625 0 L 17.59375 0 L 13.078125 -5.796875 L 8.5625 0 L 0 0 L 8.765625 -10.71875 L 1.234375 -20.515625 L 9.515625 -20.515625 L 13.078125 -15.765625 L 16.640625 -20.515625 L 24.921875 -20.515625 L 17.40625 -10.71875 Z M 26.15625 0 "/></g></g><g style="fill:#ffffff;fill-opacity:1;"><g transform="translate(218.662899, 206.383462)"><path style="stroke:none" d="M 2.40625 0 L 2.40625 -34.40625 L 9.484375 -34.40625 L 9.484375 0 Z M 2.40625 0 "/></g></g><g style="fill:#ffffff;fill-opacity:1;"><g transform="translate(228.661727, 206.383462)"><path style="stroke:none" d="M 17.953125 -20.515625 L 26.125 -20.515625 L 10 10.40625 L 1.84375 10.40625 L 8.921875 -3.203125 L -0.796875 -20.515625 L 7.359375 -20.515625 L 13.078125 -10 Z M 17.953125 -20.515625 "/></g></g></g></svg>